<svg width="127" height="121" viewBox="0 0 127 121" fill="none" xmlns="http://www.w3.org/2000/svg">
<path d="M32.5097 72.9933C31.7239 73.9808 30.9213 74.9605 30.1614 75.9737C26.3785 81.0176 18.7352 80.3279 16.0636 74.6952C15.3814 73.2369 15.143 71.6112 15.3778 70.0191C15.6127 68.4271 16.3105 66.9387 17.3848 65.7383C18.46 64.5369 19.8694 63.6819 21.4334 63.2821C22.9975 62.8824 24.6454 62.9559 26.1674 63.4934C27.2001 63.8506 28.2014 64.3007 29.2184 64.7037C29.453 64.7966 29.6955 64.8728 30.0536 64.9982C30.1423 64.0543 30.2399 63.2068 30.2961 62.3671C30.4184 60.55 30.5475 58.7339 30.6205 56.9146C30.7013 54.9071 29.7932 53.5983 27.8602 53.1213C25.1818 52.4607 22.4923 51.8214 19.778 51.349C16.9335 50.8541 14.327 51.8595 11.789 53.0138C7.55935 54.9362 3.12763 53.4482 0.865741 49.3997C-1.31083 45.5057 0.567151 38.4051 7.06207 37.5878C10.5049 37.1511 13.1551 38.3894 15.1117 41.2445C17.744 45.0802 21.4494 47.3284 25.9597 48.3361C26.8993 48.5466 27.8209 48.8377 28.7661 49.0336C30.5531 49.4053 32.1011 48.8937 33.0653 47.3542C34.5392 45.003 35.857 42.5398 37.3174 40.0006C36.2915 39.8461 35.3833 39.6725 34.4685 39.5774C32.3772 39.3613 30.4364 38.8115 28.8244 37.3661C27.523 36.2024 26.6287 34.654 26.2723 32.9473C25.9158 31.2406 26.1159 29.4649 26.8432 27.8796C28.3608 24.5521 31.7767 22.7294 35.573 23.2131C38.9552 23.6475 41.7862 26.4029 42.3632 29.8591C42.6101 31.3426 42.7942 32.8373 43.0367 34.5234C46.7186 31.8845 50.5576 29.7975 54.9119 28.6522C54.3113 25.2037 53.3482 21.9748 51.3636 19.1164C50.2229 17.4925 48.7862 16.0971 47.1283 15.0029C43.9852 12.8858 42.719 9.40488 43.7854 5.79748C44.7833 2.42521 47.959 0.0628212 51.5813 0.00124245C57.5307 -0.101762 61.647 6.21958 59.063 11.6206C57.1064 15.7094 56.7158 19.8677 58.0112 24.2028C58.2357 24.972 58.3479 25.7803 58.5724 26.554C58.8643 27.5236 59.228 27.7856 60.2259 27.7509C61.9097 27.6848 63.6002 27.5684 65.3895 27.4676C65.2166 26.863 65.0449 26.2797 64.8844 25.693C64.3141 23.6094 63.9762 21.5101 64.7014 19.3997C65.6477 16.6443 68.7425 14.5058 71.9114 14.3614C75.1667 14.2136 78.0392 15.9154 79.4413 18.8522C81.0016 22.1181 80.5245 25.1578 78.3401 27.9759C77.8349 28.6275 77.2748 29.2366 76.6866 29.9285C76.9986 30.1401 77.2231 30.3036 77.4589 30.4514C79.9509 32.0188 82.4552 33.5706 84.9304 35.165C85.431 35.4874 85.7162 35.4426 86.1068 35.016C88.6112 32.2864 90.0244 29.072 90.2994 25.403C90.6216 21.1172 93.1057 18.205 97.2984 17.3765C101.781 16.4909 106.557 20.2539 106.728 24.8074C106.867 28.4529 105.13 31.6001 102.069 32.8406C100.789 33.3601 99.3593 33.5773 97.9752 33.7598C94.4685 34.2234 91.441 35.6531 88.8435 38.0144C88.6875 38.1554 88.5539 38.554 88.6392 38.6861C90.4352 41.5815 92.2594 44.4555 94.1508 47.446C94.4292 47.1482 94.6537 46.9153 94.8703 46.6746C96.6035 44.7612 98.6768 43.5206 101.336 43.5139C104.559 43.505 107.046 44.8989 108.617 47.6867C110.212 50.516 110.005 53.3967 108.319 56.1331C106.464 59.1415 103.449 60.2992 99.7881 59.474C98.7082 59.2299 97.6553 58.8537 96.5407 58.5212C96.5407 60.7672 96.4553 62.9997 96.5754 65.2098C96.6372 66.3428 97.4735 67.1926 98.5421 67.5442C101.759 68.5989 104.997 69.6379 108.441 69.5908C110.856 69.5572 113.097 68.7858 115.272 67.7994C119.237 66.0081 123.482 67.1937 125.804 70.8851C128.639 75.3927 126.386 82.6142 119.554 83.2893C116.286 83.6117 113.731 82.2917 111.875 79.5789C109.499 76.1014 106.231 73.8689 102.158 72.8097C100.923 72.4861 99.6961 72.138 98.4534 71.8368C96.397 71.3374 94.7255 72.0361 93.649 73.8375C91.9406 76.6948 90.2455 79.5599 88.5236 82.4586C90.0369 84.2506 92.0718 85.5286 94.3461 86.1152C96.3341 86.6358 98.3737 86.9527 100.376 87.4207C104.214 88.3164 106.616 91.4379 106.762 95.3621C106.908 99.2863 103.607 102.556 100.588 103.356C97.0278 104.3 91.0324 102.282 90.4476 96.4145C90.1591 93.5136 89.526 90.7045 87.9051 88.229C87.2832 87.2763 86.5143 86.4153 85.7723 85.542C85.66 85.4065 85.2346 85.3483 85.0887 85.449C83.241 86.712 81.4169 88.0107 79.4514 89.3979C80.2371 89.9096 80.9387 90.3843 81.6571 90.8221C83.5497 91.973 85.1987 93.3636 85.8666 95.5569C87.2899 100.234 85.0168 105.65 78.7621 106.431C73.8039 107.049 68.298 101.991 70.3264 95.6241C70.616 94.715 70.9191 93.8114 71.2558 92.7825C69.5586 92.8598 67.9769 92.9202 66.3975 93.0064C64.1839 93.1184 61.9714 93.2472 59.7612 93.4061C59.5198 93.4241 59.1606 93.6413 59.0877 93.854C57.3769 98.5474 56.7876 103.287 58.6387 108.094C58.8271 108.607 59.0429 109.109 59.2852 109.598C61.4887 113.882 58.9642 118.959 54.6829 120.481C49.7528 122.233 44.6924 119.4 43.7675 114.258C43.186 111.024 44.2165 108.212 46.9521 106.309C50.9123 103.552 53.4414 99.9268 54.4651 95.2244C54.6649 94.3119 54.9355 93.414 55.1701 92.5093C55.1696 92.4238 55.1579 92.3388 55.1353 92.2563C50.1535 90.9128 45.6668 88.5056 41.665 85.1087C40.1142 86.5681 38.8673 88.3182 37.9955 90.2589C37.0974 92.2563 36.8269 94.3914 36.5597 96.5366C36.0782 100.398 32.687 103.418 28.7459 103.554C24.8877 103.688 21.2631 100.962 20.4594 97.2666C19.5973 93.2998 21.6347 87.8349 27.6974 87.2303C30.4106 86.9605 33.0687 86.4007 35.4024 84.8792C36.3824 84.2421 37.295 83.4976 38.2087 82.7653C38.3457 82.6534 38.4332 82.2738 38.3535 82.1383C36.498 79.1255 34.6155 76.1283 32.7353 73.1299C32.705 73.1042 32.6466 73.0852 32.5097 72.9933ZM55.6034 54.9676C55.527 50.4555 51.8552 46.8369 47.4392 46.9243C43.0053 47.0116 39.393 50.7309 39.4951 55.1064C39.6007 59.5524 43.2848 63.1116 47.6896 63.0277C52.0461 62.9426 55.6752 59.2434 55.6034 54.9653V54.9676ZM58.3232 73.5531C58.3064 77.8077 61.8098 81.3087 66.0686 81.3087C70.2545 81.3087 73.7557 77.8379 73.832 73.6024C73.9083 69.4386 70.3196 65.8345 66.0799 65.8177C61.8233 65.7953 58.3389 69.2729 58.3232 73.5464V73.5531ZM81.4001 51.6479C81.4026 51.0278 81.2821 50.4134 81.0456 49.8399C80.8091 49.2665 80.4612 48.7454 80.022 48.3065C79.5828 47.8677 79.0609 47.5199 78.4863 47.283C77.9118 47.0462 77.2959 46.925 76.6742 46.9265C74.1508 46.9433 71.9855 49.1053 71.9596 51.6289C71.9372 54.204 74.0924 56.3559 76.69 56.3592C77.3116 56.3644 77.9281 56.2457 78.5032 56.0101C79.0783 55.7746 79.6004 55.4269 80.0391 54.9875C80.4778 54.5481 80.8241 54.0258 81.0578 53.4512C81.2915 52.8766 81.4079 52.2612 81.4001 51.6412V51.6479Z" fill="white"/>
</svg>
